<?xml version="1.0" encoding="UTF-8"?>
<svg xmlns="http://www.w3.org/2000/svg" viewBox="0 0 51.2 51.2">
  <defs>
    <style>
      .cls-1 {
        fill: #df5821;
      }

      .cls-2 {
        fill: rgba(225, 94, 38, .94);
      }

      .cls-3 {
        fill: #e15e26;
      }

      .cls-4 {
        fill: rgba(251, 251, 251, .99);
      }

      .cls-5 {
        fill: #fbfbfb;
      }

      .cls-6 {
        fill: rgba(251, 251, 251, .95);
      }

      .cls-7 {
        fill: #181818;
      }
    </style>
  </defs>
  <rect width="51.2" height="51.2"/>
  <g id="Camada_1" data-name="Camada 1">
    <rect class="cls-7" width="51.2" height="51.2"/>
    <path class="cls-5" d="M15.55,32.66c-9.41-12.41,7.19-27.05,17.44-16.3-.72.62-1.46,1.34-2.17,1.99-2.45-2.63-6.41-3.11-9.62-1.68-2.17.97-3.87,2.76-4.71,4.98-.85,2.21-.6,4.41.35,6.53.7-.43,1.77-.97,2.51-1.37,2.02-1.06,4.05-2.1,6.09-3.12,3.65-1.86,7.15-3.77,10.76-5.69l.62-.33.45-.23c.16.08.34.15.48.27l-.33.3c-.07.06-.33.3-.38.34-2.15,2.15-4.24,3.95-6.38,6.24-1.48,1.61-2.94,3.23-4.38,4.87-.97,1.1-2.08,2.38-3.13,3.41l-.31.38c6.04,1.75,11.54-1.62,13.26-7.53.13-.46.24-.93.39-1.39,0,2.94-1.27,6.69-3.38,8.78-2.24,2.21-5.09,3.15-8.19,3.14-2.65.02-5.26-.69-7.54-2.05l-.41.29-.59.39-.46.31c-.75.51-1.71,1.11-2.49,1.58-.23-.18-.78-.21-1.1-.25l-.02-.02c.08-.16.56-.58.72-.73-.11-.19-.55-.31-.76-.32l.45-.38.48-.4c.18-.15.33-.27.52-.41.43-.4,1.54-1.25,1.85-1.6Z"/>
    <path class="cls-3" d="M36.81,17.68l.45-.23c.16.08.34.15.48.27l-.33.3c-.07.06-.33.3-.38.34-2.15,2.15-4.24,3.95-6.38,6.24-1.48,1.61-2.94,3.23-4.38,4.87-.97,1.1-2.08,2.38-3.13,3.41l-.31.38-.72-.26-.03-.11c.65-2.74,7.38-8.46,9.3-10.94-1.67.76-3.65,2.06-5.24,3.03-2.76,1.65-5.49,3.35-8.19,5.1-.46-.68-.76-1.15-1.1-1.89.7-.43,1.77-.97,2.51-1.37,2.02-1.06,4.05-2.1,6.09-3.12,3.65-1.86,7.15-3.77,10.76-5.69l.62-.33Z"/>
    <path class="cls-1" d="M36.81,17.68l.45-.23c.16.08.34.15.48.27l-.33.3c-.07.06-.33.3-.38.34-.11-.15-.6-.28-.82-.36l.62-.33Z"/>
    <path class="cls-3" d="M36.81,17.68l.45-.23c.16.08.34.15.48.27l-.33.3c-.28-.11-.35-.16-.59-.34Z"/>
    <path class="cls-3" d="M12.3,36.53c.61-.3,2.21-1.37,2.83-1.78.14.26.49.29.76.45-.75.51-1.71,1.11-2.49,1.58-.23-.18-.78-.21-1.1-.25Z"/>
    <path class="cls-1" d="M15.55,32.66l.41.46c-.52.46-1.05.95-1.58,1.39-.32-.16-.36-.14-.68-.25.43-.4,1.54-1.25,1.85-1.6Z"/>
    <path class="cls-3" d="M15.54,34.47c.18-.13.37-.25.56-.37.17.18.61.33.85.4l-.59.39-.46.31c-.28-.16-.62-.19-.76-.45l.4-.29Z"/>
    <path class="cls-1" d="M15.54,34.47c.35.09.54.21.82.43l-.46.31c-.28-.16-.62-.19-.76-.45l.4-.29Z"/>
    <path class="cls-1" d="M12.7,35.08l.48-.4c.23.05.47.18.58.4l-.17.16-.59.55c-.11-.19-.55-.31-.76-.32l.45-.38Z"/>
    <path class="cls-3" d="M12.24,35.47l.45-.38c.29.15.46.28.78.19h.05s.04-.03.07-.03l-.59.55c-.11-.19-.55-.31-.76-.32Z"/>
    <path class="cls-1" d="M16.1,34.1c.18-.13.37-.27.56-.39.19.14.51.39.7.51l-.41.29c-.24-.07-.68-.22-.85-.4Z"/>
    <path class="cls-3" d="M13.18,34.68c.18-.15.33-.27.52-.41.32.11.36.09.68.25l-.63.56c-.1-.22-.35-.35-.58-.4Z"/>
    <path class="cls-1" d="M12.24,35.47c.21,0,.65.12.76.32-.16.15-.64.57-.72.73l.02.02c.32.04.87.06,1.1.25-.64.42-4.38,2.62-4.98,2.53-.02-.03-.06-.05-.05-.09.08-.58,3.25-3.23,3.87-3.75Z"/>
    <path class="cls-5" d="M36.43,11.89c.09.64.14,1.02.38,1.62.55.25,1.1.32,1.7.43-1.08.14-1.67.04-1.95,1.24l-.11-.18-.22-.05c-.09-.28-.12-.37-.26-.63-.57-.24-1-.3-1.62-.38.54-.1,1.11-.18,1.6-.44.34-.61.35-.91.48-1.6Z"/>
    <path class="cls-4" d="M40.91,14.66c.11.19.22,1.01.46,1.29.26.31,1.06.37,1.47.43-1.42.25-1.59.17-1.88,1.65-.15-.07-.22-.95-.38-1.14-.25-.31-1.06-.42-1.46-.51,1.45-.21,1.51-.27,1.79-1.72Z"/>
    <path class="cls-5" d="M38.98,19.79c.13.11.25.56.31.75.28.11.63.17.93.24-.83.19-.99.16-1.15,1.03-.2,0-.14-.5-.27-.65-.2-.24-.63-.31-.91-.39.85-.18.9-.14,1.09-.99Z"/>
    <path class="cls-1" d="M38.18,16.98l.08.25-.53.48c-.13-.12-.31-.19-.48-.27.31-.16.61-.31.92-.46Z"/>
    <path class="cls-6" d="M36.23,14.95l.22.05.11.18-.13.81-.2-1.04Z"/>
    <path class="cls-2" d="M38.18,16.98c.27-.13.55-.28.82-.4l-.74.65-.08-.25Z"/>
  </g>
</svg>