<svg xmlns="http://www.w3.org/2000/svg" version="1.1" xmlns:xlink="http://www.w3.org/1999/xlink" width="1000" height="1000"><g clip-path="url(#SvgjsClipPath1458)"><rect width="1000" height="1000" fill="#101b23"></rect><g transform="matrix(3.7433155080213902,0,0,3.7433155080213902,150,458.8235294117647)"><svg xmlns="http://www.w3.org/2000/svg" version="1.1" xmlns:xlink="http://www.w3.org/1999/xlink" width="187" height="22"><svg width="187" height="22" viewBox="0 0 187 22" fill="none" xmlns="http://www.w3.org/2000/svg">
<g clip-path="url(#clip0_35_731)">
<path d="M-0.228516 21.4213V0.988251H3.69797V21.4213H-0.228516Z" fill="#39C6F3"></path>
<path d="M12.4316 21.4213V0.988251H15.291L23.8278 12.092L25.4025 14.3233H25.5268L25.4336 9.7085V0.988251H29.3445V21.4213H26.4851L18.0054 10.1653L16.3892 7.91825H16.2804L16.3478 12.6328V21.4213H12.4368H12.4316Z" fill="white"></path>
<path d="M37.7871 21.4213V0.988251H49.2765V4.553H41.6981V9.86075H48.0592V13.4255H41.6981V21.4213H37.7871Z" fill="white"></path>
<path d="M56.4355 21.4213V0.988251H60.3465V21.4213H56.4355ZM59.1706 14.0188V10.748H62.9054C63.5788 10.748 64.1745 10.6168 64.6822 10.3595C65.1898 10.1023 65.5939 9.74 65.8788 9.27275C66.1637 8.8055 66.3087 8.26475 66.3087 7.64525C66.3087 6.6845 65.9824 5.9285 65.3245 5.37725C64.6667 4.826 63.8068 4.553 62.7397 4.553H59.1706V0.988251H63.3561C64.6408 0.988251 65.7959 1.22975 66.8216 1.7075C67.8472 2.18525 68.6605 2.8835 69.2614 3.80225C69.8623 4.721 70.1627 5.834 70.1627 7.157C70.1627 8.48 69.8519 9.59825 69.2303 10.6378C68.6087 11.6773 67.7229 12.4963 66.5626 13.1053C65.4022 13.7143 64.0243 14.0188 62.4185 14.0188H59.1654H59.1706ZM67.4587 21.4213L62.8226 13.4518L65.7648 11.0945L71.8928 21.4213H67.4639H67.4587Z" fill="white"></path>
<path d="M76.5918 21.4213L84.9369 0.988251H88.2314L96.5765 21.4213H92.4169L90.2827 15.9455L89.9253 14.4335L86.6307 5.771H86.522L83.2274 14.4335L82.87 15.9455L80.7358 21.4213H76.5918ZM81.0622 16.985V13.646H92.1009V16.985H81.0622Z" fill="white"></path>
<path d="M111.889 21.6418C110.423 21.6418 109.04 21.3793 107.745 20.8595C106.45 20.3398 105.311 19.6048 104.321 18.665C103.332 17.7253 102.555 16.6123 101.995 15.3365C101.436 14.0608 101.156 12.6748 101.156 11.1785C101.156 9.68225 101.436 8.28575 101.995 7.01525C102.555 5.74475 103.327 4.64225 104.306 3.70775C105.285 2.77325 106.419 2.04875 107.704 1.5395C108.988 1.03025 110.356 0.767754 111.806 0.767754C112.884 0.767754 113.951 0.914754 115.013 1.2035C116.075 1.49225 117.049 1.93325 117.934 2.5265L116.458 6.05975C115.94 5.54525 115.272 5.13575 114.453 4.83125C113.635 4.52675 112.775 4.37975 111.863 4.37975C110.952 4.37975 110.128 4.5425 109.32 4.86275C108.512 5.183 107.782 5.65025 107.144 6.24875C106.507 6.84725 106 7.56125 105.627 8.39075C105.254 9.22025 105.067 10.1338 105.067 11.1418C105.067 12.1498 105.248 13.0423 105.606 13.877C105.963 14.7118 106.466 15.4415 107.098 16.061C107.73 16.6805 108.46 17.1583 109.294 17.5048C110.128 17.8513 111.014 18.0193 111.962 18.0193C112.511 18.0193 113.065 17.9563 113.635 17.8303C114.205 17.7043 114.738 17.5205 115.241 17.2685C115.743 17.0165 116.168 16.712 116.515 16.3393L117.991 19.862C117.126 20.4448 116.153 20.8858 115.08 21.185C114.008 21.4843 112.941 21.6365 111.895 21.6365L111.889 21.6418Z" fill="white"></path>
<path d="M133.397 21.6418C131.957 21.6418 130.615 21.3793 129.367 20.8543C128.118 20.3293 127.031 19.589 126.093 18.6388C125.156 17.6885 124.42 16.5755 123.897 15.3103C123.374 14.045 123.109 12.6748 123.109 11.1943C123.109 9.71375 123.374 8.35925 123.897 7.08875C124.42 5.81825 125.15 4.721 126.083 3.776C127.015 2.831 128.108 2.096 129.351 1.56575C130.595 1.0355 131.931 0.767754 133.366 0.767754C134.801 0.767754 136.179 1.0355 137.422 1.56575C138.665 2.096 139.758 2.83625 140.69 3.776C141.623 4.71575 142.348 5.8235 142.866 7.08875C143.384 8.354 143.638 9.72425 143.638 11.2048C143.638 12.6853 143.379 14.0398 142.866 15.3103C142.353 16.5808 141.628 17.6833 140.69 18.6388C139.753 19.5943 138.67 20.3293 137.427 20.8543C136.184 21.3793 134.842 21.6418 133.392 21.6418H133.397ZM133.356 18.0245C134.267 18.0245 135.106 17.846 135.878 17.4995C136.65 17.153 137.323 16.6648 137.904 16.0453C138.484 15.4258 138.934 14.7013 139.25 13.877C139.566 13.0528 139.727 12.155 139.727 11.1943C139.727 10.2335 139.566 9.3095 139.24 8.48525C138.914 7.661 138.463 6.94175 137.888 6.3275C137.313 5.71325 136.634 5.24075 135.857 4.8995C135.08 4.55825 134.246 4.385 133.356 4.385C132.465 4.385 131.646 4.553 130.879 4.8995C130.113 5.246 129.445 5.7185 128.87 6.3275C128.295 6.9365 127.844 7.65575 127.518 8.48525C127.191 9.31475 127.025 10.2178 127.025 11.1943C127.025 12.1708 127.186 13.0528 127.512 13.8823C127.839 14.7118 128.284 15.4415 128.854 16.061C129.424 16.6805 130.092 17.1635 130.864 17.51C131.636 17.8565 132.465 18.0298 133.361 18.0298L133.356 18.0245Z" fill="white"></path>
<path d="M150.885 21.4213V0.988251H154.796V21.4213H150.885ZM153.62 14.0188V10.748H157.355C158.028 10.748 158.624 10.6168 159.131 10.3595C159.639 10.1023 160.043 9.74 160.328 9.27275C160.613 8.8055 160.758 8.26475 160.758 7.64525C160.758 6.6845 160.432 5.9285 159.774 5.37725C159.116 4.826 158.256 4.553 157.189 4.553H153.62V0.988251H157.805C159.09 0.988251 160.245 1.22975 161.271 1.7075C162.296 2.18525 163.11 2.8835 163.711 3.80225C164.311 4.721 164.612 5.834 164.612 7.157C164.612 8.48 164.301 9.59825 163.68 10.6378C163.058 11.6773 162.172 12.4963 161.012 13.1053C159.851 13.7143 158.474 14.0188 156.868 14.0188H153.615H153.62ZM161.908 21.4213L157.272 13.4518L160.214 11.0945L165.254 19.3265L161.913 21.4213H161.908Z" fill="white"></path>
<path d="M173.406 21.4213V0.988251H177.317V21.4213H173.406ZM176.494 14.3653V10.832H179.886C180.57 10.832 181.166 10.6955 181.674 10.4225C182.181 10.1495 182.57 9.7715 182.849 9.29375C183.129 8.816 183.269 8.26475 183.269 7.64525C183.269 6.6845 182.948 5.9285 182.311 5.37725C181.674 4.826 180.809 4.553 179.726 4.553H176.499V0.988251H179.975C181.451 0.988251 182.725 1.256 183.797 1.7915C184.87 2.327 185.693 3.083 186.268 4.06475C186.843 5.0465 187.128 6.19625 187.128 7.514C187.128 8.83175 186.838 10.055 186.253 11.084C185.667 12.113 184.849 12.9163 183.797 13.4938C182.746 14.0713 181.513 14.36 180.099 14.36H176.504L176.494 14.3653Z" fill="white"></path>
<path d="M25.4141 21.4212V0.988243H29.3405V21.4212H25.4141Z" fill="#39C6F3"></path>
<path d="M49.2726 4.96774H37.7832V0.988243H49.2726V4.96774Z" fill="#39C6F3"></path>
<path d="M56.4316 21.4212V0.988243H60.3581V21.4212H56.4316Z" fill="#39C6F3"></path>
<path d="M161.97 21.5105L156.318 12.1025L159.67 10.034L165.321 19.442L161.97 21.5105Z" fill="#39C6F3"></path>
<path d="M173.396 21.4212V0.988243H177.323V21.4212H173.396Z" fill="#39C6F3"></path>
<path d="M80.0625 13.436H94.9759V17.4155H80.0625V13.436Z" fill="#39C6F3"></path>
<path d="M107.138 6.25399C107.775 5.65549 108.501 5.18824 109.314 4.86799C110.127 4.54774 110.971 4.38499 111.857 4.38499C112.743 4.38499 113.634 4.53725 114.447 4.8365C115.261 5.13575 115.929 5.54524 116.452 6.06499L117.928 2.53175C117.042 1.9385 116.069 1.4975 115.007 1.20874C113.945 0.919995 112.878 0.772995 111.8 0.772995C110.35 0.772995 108.982 1.03024 107.698 1.54474C106.413 2.05924 105.279 2.78375 104.3 3.713C104.258 3.755 104.227 3.80225 104.186 3.84425L106.801 6.64774C106.915 6.52174 107.014 6.37999 107.138 6.26449V6.25399Z" fill="#39C6F3"></path>
<path d="M135.893 17.4943C135.121 17.846 134.282 18.0193 133.37 18.0193C132.459 18.0193 131.645 17.846 130.873 17.4995C130.107 17.153 129.439 16.6753 128.869 16.0558L126.051 18.5548C126.051 18.5548 126.087 18.602 126.108 18.623C127.045 19.5733 128.138 20.3135 129.382 20.8385C130.625 21.3635 131.972 21.626 133.412 21.626C134.852 21.626 136.204 21.3635 137.447 20.8385C138.55 20.3713 139.514 19.7045 140.374 18.9013L137.716 16.208C137.183 16.733 136.582 17.174 135.893 17.4838V17.4943Z" fill="#39C6F3"></path>
</g>
<defs>
<clipPath id="clip0_35_731">
<rect width="187" height="21" fill="white" transform="translate(0 0.5)"></rect>
</clipPath>
<clipPath id="SvgjsClipPath1458"><rect width="1000" height="1000" x="0" y="0" rx="500" ry="500"></rect></clipPath></defs>
</svg></svg></g></g></svg>